<?xml version="1.0" standalone="no"?>
<!DOCTYPE svg PUBLIC "-//W3C//DTD SVG 20010904//EN"
 "http://www.w3.org/TR/2001/REC-SVG-20010904/DTD/svg10.dtd">
<svg version="1.0" xmlns="http://www.w3.org/2000/svg"
 width="1024.000000pt" height="1024.000000pt" viewBox="0 0 1024.000000 1024.000000"
 preserveAspectRatio="xMidYMid meet">

<g transform="translate(0.000000,1024.000000) scale(0.100000,-0.100000)"
fill="#2A9D8F" stroke="none">
<path d="M2108 8984 c-175 -32 -379 -117 -495 -207 -214 -166 -362 -419 -407
-693 -15 -90 -17 -355 -13 -3014 3 -2702 4 -2920 20 -2983 76 -304 266 -575
492 -702 111 -62 251 -112 380 -136 42 -8 942 -11 3105 -11 l3045 -1 87 21
c197 48 354 129 479 249 139 133 231 278 288 458 66 203 61 -35 61 3150 0
3166 4 2946 -57 3139 -51 164 -148 319 -275 442 -141 136 -288 221 -473 271
l-100 28 -3030 1 c-2553 2 -3042 0 -3107 -12z m5467 -944 c97 -31 153 -61 225
-121 81 -67 152 -165 192 -264 32 -79 33 -82 32 -245 0 -184 -8 -219 -77 -342
-41 -73 -111 -150 -490 -540 l-261 -268 -178 0 c-98 0 -178 3 -178 7 0 4 199
208 443 453 410 411 446 450 472 509 39 91 46 213 16 302 -40 122 -111 202
-228 257 -53 24 -69 27 -173 27 -105 0 -120 -2 -175 -28 -33 -16 -70 -38 -83
-50 l-24 -22 -83 90 -84 90 27 23 c86 75 185 123 290 142 82 15 259 4 337 -20z
m-968 -306 c37 -28 53 -59 53 -102 0 -30 -68 -111 -238 -284 l-95 -98 -52 0
c-61 0 -99 24 -121 76 -19 45 -18 83 4 121 25 46 259 289 296 308 42 21 110
12 153 -21z m854 -164 c59 -31 99 -91 99 -152 0 -40 -9 -76 -25 -96 -1 -1 -58
52 -126 118 -118 114 -123 121 -105 135 28 22 109 19 157 -5z m-1759 0 c23 -7
46 -23 60 -43 l23 -32 5 -740 c5 -683 6 -742 23 -772 36 -66 -6 -63 868 -63
l791 0 39 -39 39 -39 0 -546 c0 -590 0 -588 -53 -618 -17 -10 -199 -14 -828
-18 -789 -5 -807 -5 -829 -25 -51 -45 -50 -23 -50 -952 0 -853 0 -869 -20
-901 -39 -63 -37 -63 -595 -60 l-503 3 -27 25 c-57 52 -55 18 -55 945 0 943 2
906 -62 945 -32 20 -48 20 -836 20 -881 0 -845 -2 -877 60 -13 25 -15 106 -15
567 0 516 1 539 20 570 40 66 -4 63 876 63 l797 0 34 22 c65 39 63 14 63 803
0 779 -1 764 56 802 26 17 65 18 504 23 261 3 484 6 495 8 11 1 37 -3 57 -8z
m1434 -219 c111 -50 166 -199 112 -299 -28 -50 -367 -411 -410 -437 -21 -12
-58 -20 -108 -23 -65 -3 -81 0 -120 20 -93 50 -137 165 -105 274 16 56 26 69
213 256 107 109 209 204 226 212 43 22 142 20 192 -3z m-916 -671 c71 -177
233 -325 418 -382 39 -12 72 -26 72 -30 0 -5 -133 -8 -296 -8 l-296 0 4 239
c3 239 3 239 28 266 23 24 25 25 32 8 4 -10 21 -52 38 -93z m-1976 -2498 c0
-86 -1 -200 -2 -252 l-2 -95 -142 -150 c-302 -321 -686 -702 -746 -742 -82
-55 -153 -81 -287 -106 l-110 -21 -148 -150 -147 -150 -36 35 c-20 19 -54 55
-76 82 l-40 47 129 138 130 137 6 125 c11 221 60 350 185 491 37 42 220 232
407 423 l340 346 270 0 270 0 -1 -158z m-1714 -1814 c-25 -18 -252 -120 -256
-115 -8 8 34 142 67 217 l30 64 81 -82 c45 -44 80 -83 78 -84z"/>
</g>
</svg>
